<svg width="35" height="35" viewBox="0 0 35 35" fill="none" xmlns="http://www.w3.org/2000/svg">
<g id="behance 1">
<path id="Vector" d="M24.1578 3.22705H8.96632C4.02221 3.22705 0 7.08523 0 11.8277V26.3994C0 31.1419 4.02221 35.0001 8.96632 35.0001H24.1578C29.1016 35.0001 33.1238 31.1419 33.1238 26.3994V11.8277C33.1238 7.08523 29.1016 3.22705 24.1578 3.22705ZM31.182 26.3994C31.182 30.1148 28.0309 33.1374 24.1578 33.1374H8.96632C5.09296 33.1374 1.94186 30.1148 1.94186 26.3994V11.8277C1.94186 8.11232 5.09296 5.08972 8.96632 5.08972H24.1578C28.0309 5.08972 31.182 8.11232 31.182 11.8277V26.3994Z" fill="white" fill-opacity="0.8"/>
<path id="Vector_2" d="M14.1781 18.6339C15.2415 18.1898 15.7737 17.2355 15.7737 15.7708C15.7737 13.6582 14.5159 12.6018 12.0004 12.6018H8.37751C8.08941 12.6018 7.83922 12.6677 7.62669 12.7999C7.41365 12.932 7.30751 13.1121 7.30751 13.3399V25.0439C7.30751 25.2362 7.40759 25.4042 7.60799 25.5482C7.80789 25.6921 8.06464 25.7641 8.37751 25.7641H12.3573C13.5084 25.7641 14.4219 25.4611 15.098 24.8549C15.7737 24.2488 16.1116 23.2794 16.1116 21.9469V21.5688C16.1116 20.7286 15.9486 20.0893 15.6233 19.6511C15.2978 19.213 14.8162 18.8741 14.1781 18.6339ZM9.72902 14.6545H11.8127C12.2883 14.6545 12.6605 14.7895 12.9297 15.0596C13.1985 15.3296 13.3332 15.6988 13.3332 16.1669C13.3332 16.6471 13.2049 17.0253 12.9484 17.3014C12.6919 17.5775 12.3196 17.7154 11.8316 17.7154H9.72902V14.6545ZM13.6711 21.7489C13.6711 23.0574 13.0641 23.7117 11.8503 23.7117H9.72902V19.5522H11.8503C12.451 19.5522 12.9044 19.7025 13.2112 20.0023C13.5177 20.3024 13.6711 20.7887 13.6711 21.4609V21.7489Z" fill="white" fill-opacity="0.8"/>
<path id="Vector_3" d="M24.6902 22.0911C24.9528 22.0911 25.1656 22.0792 25.3284 22.0554C25.4908 22.0317 25.6693 21.9721 25.8634 21.877C26.0572 21.782 26.2012 21.6184 26.295 21.3866C26.389 21.1549 26.436 20.8609 26.436 20.504C26.436 19.5274 26.0572 18.7163 25.3003 18.0712C24.5429 17.4262 23.6324 17.1033 22.569 17.1033C21.43 17.1033 20.4601 17.4577 19.6592 18.1658C18.8583 18.8741 18.4578 19.7206 18.4578 20.7047V22.2351C18.4578 23.3397 18.8803 24.2311 19.7249 24.9091C20.5697 25.5873 21.6615 25.9265 23.0006 25.9265C23.9392 25.9265 24.7244 25.7616 25.3564 25.4312C25.9882 25.1013 26.3046 24.768 26.3046 24.4318C26.3046 24.2158 26.2169 23.9906 26.0418 23.7567C25.8664 23.5225 25.6475 23.4054 25.3847 23.4054C25.2467 23.4054 24.9465 23.5198 24.4835 23.7477C24.0206 23.9758 23.5513 24.0897 23.0757 24.0897C22.4123 24.0897 21.8806 23.9307 21.4803 23.6127C21.0795 23.2946 20.8796 22.8775 20.8796 22.3611V22.0911H24.6902ZM20.8796 20.2517C20.8796 19.8595 21.0421 19.5426 21.3676 19.3017C21.6928 19.0607 22.0744 18.94 22.5126 18.94C22.9753 18.94 23.3668 19.0636 23.686 19.3099C24.0049 19.5567 24.1646 19.8764 24.1646 20.2687C24.1646 20.448 24.1237 20.5685 24.0425 20.6301C23.9609 20.6919 23.8202 20.7227 23.6203 20.7227H20.8796V20.2517Z" fill="white" fill-opacity="0.8"/>
<path id="Vector_4" d="M25.5149 14.2646H19.4421C18.9059 14.2646 18.4709 14.6818 18.4709 15.196C18.4709 15.7104 18.9059 16.1276 19.4421 16.1276H25.5149C26.0511 16.1276 26.486 15.7104 26.486 15.196C26.486 14.6818 26.0511 14.2646 25.5149 14.2646Z" fill="white" fill-opacity="0.8"/>
</g>
</svg>
