<svg width="35" height="35" viewBox="0 0 35 35" fill="none" xmlns="http://www.w3.org/2000/svg">
<g id="instagram 1" clip-path="url(#clip0_44_11)">
<path id="Vector" d="M25.5258 0H9.47416C4.25002 0 0 4.25002 0 9.47416V25.526C0 30.7499 4.25002 34.9999 9.47416 34.9999H25.526C30.7499 34.9999 34.9999 30.7499 34.9999 25.526V9.47416C34.9999 4.25002 30.7499 0 25.5258 0ZM32.9481 25.526C32.9481 29.6185 29.6185 32.9481 25.5258 32.9481H9.47416C5.38142 32.9481 2.05185 29.6185 2.05185 25.526V9.47416C2.05185 5.38142 5.38142 2.05185 9.47416 2.05185H25.526C29.6185 2.05185 32.9481 5.38142 32.9481 9.47416V25.526Z" fill="white" fill-opacity="0.8"/>
<path id="Vector_2" d="M17.5 7.92993C12.223 7.92993 7.92994 12.2229 7.92994 17.5C7.92994 22.777 12.223 27.07 17.5 27.07C22.777 27.07 27.07 22.777 27.07 17.5C27.07 12.2229 22.777 7.92993 17.5 7.92993ZM17.5 25.0181C13.3546 25.0181 9.98178 21.6456 9.98178 17.5C9.98178 13.3546 13.3546 9.98178 17.5 9.98178C21.6456 9.98178 25.0181 13.3546 25.0181 17.5C25.0181 21.6456 21.6456 25.0181 17.5 25.0181Z" fill="white" fill-opacity="0.8"/>
<path id="Vector_3" d="M27.2988 4.53125C25.7394 4.53125 24.471 5.7999 24.471 7.35908C24.471 8.91852 25.7394 10.1872 27.2988 10.1872C28.8583 10.1872 30.1269 8.91852 30.1269 7.35908C30.1269 5.79963 28.8583 4.53125 27.2988 4.53125ZM27.2988 8.13506C26.8711 8.13506 26.5229 7.78686 26.5229 7.35908C26.5229 6.93103 26.8711 6.5831 27.2988 6.5831C27.7269 6.5831 28.0751 6.93103 28.0751 7.35908C28.0751 7.78686 27.7269 8.13506 27.2988 8.13506Z" fill="white" fill-opacity="0.8"/>
</g>
<defs>
<clipPath id="clip0_44_11">
<rect width="35" height="35" fill="white"/>
</clipPath>
</defs>
</svg>
