<svg width="35" height="35" viewBox="0 0 35 35" fill="none" xmlns="http://www.w3.org/2000/svg">
<g id="linkedin 1">
<path id="Vector" d="M9.048 10.365H3.14774C2.48631 10.365 1.94824 10.9031 1.94824 11.5645V33.8007C1.94824 34.4619 2.48631 35 3.14774 35H9.048C9.70917 35 10.2472 34.4619 10.2472 33.8007V11.5645C10.2472 10.9031 9.70917 10.365 9.048 10.365ZM8.19351 32.9462H4.00196V12.4187H8.19351V32.9462Z" fill="white" fill-opacity="0.8"/>
<path id="Vector_2" d="M6.09787 0C3.79074 0 1.91406 1.87667 1.91406 4.18353C1.91406 6.49066 3.79074 8.36733 6.09787 8.36733C8.40446 8.36733 10.2814 6.49066 10.2814 4.18353C10.2814 1.87667 8.40473 0 6.09787 0ZM6.09787 6.31362C4.92321 6.31362 3.96778 5.35819 3.96778 4.18353C3.96778 3.00914 4.92321 2.05371 6.09787 2.05371C7.27226 2.05371 8.22769 3.00914 8.22769 4.18353C8.22769 5.35792 7.27226 6.31362 6.09787 6.31362Z" fill="white" fill-opacity="0.8"/>
<path id="Vector_3" d="M29.3294 12.972C27.9189 11.7946 26.1258 11.165 24.2823 11.1992C23.1372 11.2203 22.0184 11.4964 21.0045 11.9962V11.5108C21.0045 10.8782 20.4915 10.3652 19.8589 10.3652H13.8513C13.2187 10.3652 12.7058 10.8782 12.7058 11.5108V33.8544C12.7058 34.4872 13.2187 34.9999 13.8513 34.9999H19.9775C20.5447 34.9999 21.0045 34.5401 21.0045 33.9732V20.6514C21.0045 19.511 21.8969 18.5459 23.0366 18.512C24.2211 18.477 25.1958 19.43 25.1958 20.6068V33.9946C25.1958 34.5497 25.646 34.9999 26.2011 34.9999H32.0889C32.644 34.9999 33.0942 34.5497 33.0942 33.9946V21.0141C33.0942 17.9005 31.722 14.9691 29.3294 12.972ZM31.0405 32.9462H27.2498V20.6068C27.2498 18.3189 25.3883 16.4575 23.1001 16.4575C20.8122 16.4575 18.9508 18.3189 18.9508 20.6068V32.9462H14.7595V12.4187H18.9508V13.9111H18.9521C18.9518 14.153 19.0359 14.396 19.209 14.5918C19.5847 15.0163 20.2338 15.0559 20.6584 14.6799C21.6702 13.7843 22.9706 13.2774 24.3202 13.2523C25.6711 13.2267 26.9822 13.6876 28.0135 14.5485C29.9374 16.1544 31.0405 18.5109 31.0405 21.0141V32.9462Z" fill="white" fill-opacity="0.8"/>
</g>
</svg>
