<svg width="34" height="24" viewBox="0 0 34 24" fill="none" xmlns="http://www.w3.org/2000/svg">
<g id="Group">
<path id="Vector" d="M10.8406 12.9855C10.8406 16.3855 13.6 19.1449 17 19.1449C20.4 19.1449 23.1595 16.3855 23.1595 12.9855C23.1595 9.5855 20.4 6.82608 17 6.82608C13.6 6.82608 10.8406 9.5855 10.8406 12.9855ZM0 5.34779V20.1304C0 22.0374 1.54231 23.5796 3.44928 23.5796H30.5507C32.4577 23.5796 34 22.0374 34 20.1304V5.34779C34 3.44083 32.4577 1.89852 30.5507 1.89852H29.8313C29.6638 1.89852 29.511 1.81477 29.4174 1.67679L28.8704 0.858831C28.6881 0.582889 28.3826 0.420288 28.0525 0.420288H26.1504C25.8203 0.420288 25.5148 0.582889 25.3325 0.858831L24.7855 1.67679C24.6919 1.81477 24.5391 1.89852 24.3716 1.89852H3.44928C1.54231 1.89852 0 3.44083 0 5.34779ZM9.3623 12.9855C9.3623 8.76754 12.782 5.34779 17 5.34779C21.218 5.34779 24.6376 8.76748 24.6376 12.9855C24.6376 17.2035 21.218 20.6232 17 20.6232C12.782 20.6231 9.3623 17.2035 9.3623 12.9855ZM2.46375 5.34779C2.46375 4.80577 2.90726 4.36233 3.44928 4.36233H6.8985C7.44052 4.36233 7.88402 4.80577 7.88402 5.34779V6.82608C7.88402 7.3681 7.44052 7.8116 6.8985 7.8116H3.44928C2.90726 7.8116 2.46375 7.3681 2.46375 6.82608V5.34779ZM17 6.82608C20.4 6.82608 23.1595 9.5855 23.1595 12.9855C23.1595 16.3855 20.4 19.1449 17 19.1449C13.6 19.1449 10.8406 16.3855 10.8406 12.9855C10.8406 9.5855 13.6 6.82608 17 6.82608ZM17 6.82608C20.4 6.82608 23.1595 9.5855 23.1595 12.9855C23.1595 16.3855 20.4 19.1449 17 19.1449C13.6 19.1449 10.8406 16.3855 10.8406 12.9855C10.8406 9.5855 13.6 6.82608 17 6.82608Z" fill="#752F86"/>
</g>
</svg>
